<?xml version="1.0" encoding="iso-8859-1"?>
<!-- Uploaded to: SVG Repo, www.svgrepo.com, Generator: SVG Repo Mixer Tools -->
<svg fill="#000000" version="1.1" id="Layer_1" xmlns="http://www.w3.org/2000/svg" xmlns:xlink="http://www.w3.org/1999/xlink" 
	 viewBox="0 0 512 512" xml:space="preserve">
<g>
	<g>
		<rect x="145.569" y="144.492" width="16.25" height="44.593"/>
	</g>
</g>
<g>
	<g>
		<path d="M460.428,72.516H0v188.552h460.428L512,166.792L460.428,72.516z M103.016,221.216H72.605v-39.218H49.829v39.218H19.418
			V112.367h30.411v39.218h22.776v-39.218h30.411V221.216z M192.227,219.499h-77.073V114.083h77.073V219.499z M261.372,144.494
			v76.722h-30.411v-76.722h-27.345v-30.411h85.1v30.411H261.372z M377.929,144.494h-47.412v7.091h28.532v30.411h-28.532v7.091
			h47.412v30.411h-77.824V114.083h77.824V144.494z M389.317,219.5V112.367h30.411v76.722h47.412V219.5H389.317z"/>
	</g>
</g>
<g>
	<g>
		<rect x="190.395" y="291.48" width="88.537" height="220.472"/>
	</g>
</g>
<g>
	<g>
		<rect x="190.395" y="0.048" width="88.537" height="42.056"/>
	</g>
</g>
</svg>